<svg width="24" height="24" viewBox="0 0 24 24" fill="none" xmlns="http://www.w3.org/2000/svg">
<g clip-path="url(#clip0_201_5391)">
<path d="M23.5454 8.94375C23.7282 8.79844 24.0001 8.93437 24.0001 9.16406V18.75C24.0001 19.9922 22.9923 21 21.7501 21H2.25012C1.00793 21 0.00012207 19.9922 0.00012207 18.75V9.16875C0.00012207 8.93438 0.26731 8.80312 0.45481 8.94844C1.50481 9.76406 2.897 10.8 7.67825 14.2734C8.66731 14.9953 10.3361 16.5141 12.0001 16.5047C13.6736 16.5188 15.3751 14.9672 16.3267 14.2734C21.1079 10.8 22.4954 9.75938 23.5454 8.94375ZM12.0001 15C13.0876 15.0188 14.6532 13.6313 15.4407 13.0594C21.6611 8.54531 22.1345 8.15156 23.5689 7.02656C23.8407 6.81562 24.0001 6.4875 24.0001 6.14062V5.25C24.0001 4.00781 22.9923 3 21.7501 3H2.25012C1.00793 3 0.00012207 4.00781 0.00012207 5.25V6.14062C0.00012207 6.4875 0.159497 6.81094 0.431372 7.02656C1.86575 8.14687 2.33918 8.54531 8.5595 13.0594C9.347 13.6313 10.9126 15.0188 12.0001 15Z" fill="white"/>
</g>
<defs>
<clipPath id="clip0_201_5391">
<rect width="24" height="24" fill="white"/>
</clipPath>
</defs>
</svg>
