<svg width="24" height="24" viewBox="0 0 24 24" fill="none" xmlns="http://www.w3.org/2000/svg">
<g clip-path="url(#clip0_201_4691)">
<path d="M23.3153 16.9596L18.0653 14.7096C17.841 14.614 17.5917 14.5938 17.355 14.6522C17.1183 14.7105 16.907 14.8442 16.7528 15.033L14.4278 17.8736C10.7789 16.1532 7.8424 13.2167 6.122 9.56784L8.96262 7.24284C9.15185 7.08894 9.28578 6.87758 9.34414 6.64076C9.4025 6.40393 9.38211 6.15454 9.28606 5.93034L7.03606 0.680342C6.93064 0.438658 6.7442 0.241332 6.50888 0.122388C6.27356 0.00344402 6.00411 -0.0296617 5.747 0.0287791L0.871997 1.15378C0.624108 1.21102 0.40294 1.3506 0.244592 1.54972C0.0862433 1.74885 6.49667e-05 1.99577 0.000122099 2.25019C0.000122099 14.2736 9.74543 24.0002 21.7501 24.0002C22.0046 24.0003 22.2516 23.9142 22.4509 23.7559C22.6501 23.5975 22.7897 23.3763 22.847 23.1283L23.972 18.2533C24.0301 17.9949 23.9963 17.7244 23.8764 17.4883C23.7565 17.2522 23.5581 17.0652 23.3153 16.9596Z" fill="white"/>
</g>
<defs>
<clipPath id="clip0_201_4691">
<rect width="24" height="24" fill="white"/>
</clipPath>
</defs>
</svg>
